<?xml version="1.0" encoding="utf-8"?>
<!-- Generator: Adobe Illustrator 23.0.1, SVG Export Plug-In . SVG Version: 6.00 Build 0)  -->
<svg version="1.1" id="Layer_1" xmlns="http://www.w3.org/2000/svg" xmlns:xlink="http://www.w3.org/1999/xlink" x="0px" y="0px"
	 viewBox="0 0 1024 1024" enable-background="new 0 0 1024 1024" xml:space="preserve">
<title>gitplus_for_gitlabapp-icon-rgb</title>
<g>
	<g>
		<g>
			<g>
				
					<linearGradient id="SVGID_1_" gradientUnits="userSpaceOnUse" x1="242.6396" y1="244.8376" x2="782.013" y2="784.2109" gradientTransform="matrix(1 0 0 -1 0 1026)">
					<stop  offset="0" style="stop-color:#FCA326"/>
					<stop  offset="0.48" style="stop-color:#FC6D26"/>
					<stop  offset="1" style="stop-color:#E24329"/>
				</linearGradient>
				<path fill="url(#SVGID_1_)" d="M496.02,0h30.26c25.67,8.25,42.09,28.5,60.14,46.57c137.82,138.01,275.63,276.06,413.45,414.16
					c4.61,4.41,8.61,9.42,11.87,14.9c4.71,8.43,8.23,17.5,12.26,26.3v21.91c-0.62,0.46-1.69,0.86-1.77,1.44
					c-1.98,15.33-10.05,27.42-20.57,38C855.33,709.91,708.9,856.47,562.37,1002.93c-6.8,6.75-16.16,11.05-24.52,16.34
					c-3.2,1.77-6.5,3.36-9.89,4.74h-30.31c-1.41-1.05-2.93-1.95-4.52-2.7c-10.76-3.75-20.5-9.95-28.45-18.1
					C319.03,856.97,173.27,710.83,27.39,564.79c-6.9-6.7-13.13-14.07-18.59-21.99c-4.06-6.16-5.94-13.75-8.8-20.7v-21.89
					c0.6-0.46,1.68-0.85,1.74-1.44c2.02-15.32,10.05-27.42,20.59-38.03c99.06-99.28,198.11-198.51,297.17-297.72
					c2.12-2.12,4.31-4.13,7.77-7.34c1.64,2.48,3.44,4.86,5.38,7.11c33.02,33.19,66.04,66.5,99.39,99.33
					c7.38,7.25,12.75,13.62,6.62,24.18c-1.44,2.48-1.61,5.84-1.87,8.84c-2.87,33.02,13.35,63.25,42.64,78.36
					c4.68,2.43,6.19,4.9,6.17,10.05c-0.16,89.01-0.16,177.99,0,266.94c0,5.74-1.71,8.61-7.09,11.28
					c-33.33,16.65-50.09,57.64-38.42,92.29c11.94,35.46,48.81,60.09,87.79,53.22c44.59-7.87,74.52-55.73,61.08-98.94
					c-6.78-21.84-20.95-37.07-39.95-47.71V382.59c1.02,0.37,1.64,0.42,1.98,0.75c33.69,33.73,67.33,67.5,100.92,101.32
					c1.56,1.58,2.12,5.3,1.56,7.65c-2.67,11.48-5.41,22.58-3.53,34.9c3.33,21.85,13.24,39.71,30.65,52.26
					c27.66,19.91,57.25,21.62,86.95,3.98c25.28-14.99,37.76-38.76,37.58-67.01c-0.1-25.51-11.33-47.98-33.26-62.76
					c-16.84-11.28-35.59-18.13-56.33-12.72c-10.18,2.67-16.94,0.32-24.48-7.48c-32.34-33.48-65.51-66.17-98.52-98.98
					c-3.39-3.36-4.22-6.23-2.99-10.92c7.65-29.1-0.13-54.71-21.09-75.21c-20.1-19.65-45.28-26.07-72.86-19.41
					c-5.74,1.44-8.53-0.14-12.09-3.72c-35.41-35.6-70.9-71.11-106.48-106.51c-5.18-5.14-5.54-7.98-0.14-13.29
					c29.2-28.71,57.57-58.27,87.21-86.51c7.87-7.49,19.21-11.31,28.94-16.85C494.06,1.45,495.02,0.69,496.02,0z"/>
				<g>
					<g opacity="0.2">
						<path d="M496.02,0h30.26c25.67,8.25,42.09,28.5,60.14,46.57c137.82,138.01,275.63,276.06,413.45,414.16
							c4.61,4.41,8.61,9.42,11.87,14.9c4.71,8.43,8.23,17.5,12.26,26.3v21.91c-0.62,0.46-1.69,0.86-1.77,1.44
							c-1.98,15.33-10.05,27.42-20.57,38C855.33,709.91,708.9,856.47,562.37,1002.93c-6.8,6.75-16.16,11.05-24.52,16.34
							c-3.2,1.77-6.5,3.36-9.89,4.74h-30.31c-1.41-1.05-2.93-1.95-4.52-2.7c-10.76-3.75-20.5-9.95-28.45-18.1
							C319.03,856.97,173.27,710.83,27.39,564.79c-6.9-6.7-13.13-14.07-18.59-21.99c-4.06-6.16-5.94-13.75-8.8-20.7v-21.89
							c0.6-0.46,1.68-0.85,1.74-1.44c2.02-15.32,10.05-27.42,20.59-38.03c99.06-99.28,198.11-198.51,297.17-297.72
							c2.12-2.12,4.31-4.13,7.77-7.34c1.64,2.48,3.44,4.86,5.38,7.11c33.02,33.19,66.04,66.5,99.39,99.33
							c7.38,7.25,12.75,13.62,6.62,24.18c-1.44,2.48-1.61,5.84-1.87,8.84c-2.87,33.02,13.35,63.25,42.64,78.36
							c4.68,2.43,6.19,4.9,6.17,10.05c-0.16,89.01-0.16,177.99,0,266.94c0,5.74-1.71,8.61-7.09,11.28
							c-33.33,16.65-50.09,57.64-38.42,92.29c11.94,35.46,48.81,60.09,87.79,53.22c44.59-7.87,74.52-55.73,61.08-98.94
							c-6.78-21.84-20.95-37.07-39.95-47.71V382.59c1.02,0.37,1.64,0.42,1.98,0.75c33.69,33.73,67.33,67.5,100.92,101.32
							c1.56,1.58,2.12,5.3,1.56,7.65c-2.67,11.48-5.41,22.58-3.53,34.9c3.33,21.85,13.24,39.71,30.65,52.26
							c27.66,19.91,57.25,21.62,86.95,3.98c25.28-14.99,37.76-38.76,37.58-67.01c-0.1-25.51-11.33-47.98-33.26-62.76
							c-16.84-11.28-35.59-18.13-56.33-12.72c-10.18,2.67-16.94,0.32-24.48-7.48c-32.34-33.48-65.51-66.17-98.52-98.98
							c-3.39-3.36-4.22-6.23-2.99-10.92c7.65-29.1-0.13-54.71-21.09-75.21c-20.1-19.65-45.28-26.07-72.86-19.41
							c-5.74,1.44-8.53-0.14-12.09-3.72c-35.41-35.6-70.9-71.11-106.48-106.51c-5.18-5.14-5.54-7.98-0.14-13.29
							c29.2-28.71,57.57-58.27,87.21-86.51c7.87-7.49,19.21-11.31,28.94-16.85C494.06,1.45,495.02,0.69,496.02,0z"/>
					</g>
				</g>
			</g>
		</g>
	</g>
</g>
</svg>
